<svg width="1000" height="1000" xmlns="http://www.w3.org/2000/svg"><g transform="translate(0,465)" fill="none" font-size="10" font-family="sans-serif" text-anchor="middle"><g class="tick" opacity="1" transform="translate(40.5,0)"><line stroke="currentColor" y2="6"></line><text fill="currentColor" y="9" dy="0.71em">0</text></g><g class="tick" opacity="1" transform="translate(95.5,0)"><line stroke="currentColor" y2="6"></line><text fill="currentColor" y="9" dy="0.71em">20</text></g><g class="tick" opacity="1" transform="translate(150.5,0)"><line stroke="currentColor" y2="6"></line><text fill="currentColor" y="9" dy="0.71em">40</text></g><g class="tick" opacity="1" transform="translate(205.5,0)"><line stroke="currentColor" y2="6"></line><text fill="currentColor" y="9" dy="0.71em">60</text></g><g class="tick" opacity="1" transform="translate(260.5,0)"><line stroke="currentColor" y2="6"></line><text fill="currentColor" y="9" dy="0.71em">80</text></g><g class="tick" opacity="1" transform="translate(315.5,0)"><line stroke="currentColor" y2="6"></line><text fill="currentColor" y="9" dy="0.71em">100</text></g><g class="tick" opacity="1" transform="translate(370.5,0)"><line stroke="currentColor" y2="6"></line><text fill="currentColor" y="9" dy="0.71em">120</text></g><g class="tick" opacity="1" transform="translate(425.5,0)"><line stroke="currentColor" y2="6"></line><text fill="currentColor" y="9" dy="0.71em">140</text></g><g class="tick" opacity="1" transform="translate(480.5,0)"><line stroke="currentColor" y2="6"></line><text fill="currentColor" y="9" dy="0.71em">160</text></g><text x="500" y="31" fill="currentColor" text-anchor="end"></text></g><g transform="translate(40,0)" fill="none" font-size="10" font-family="sans-serif" text-anchor="end"><g class="tick" opacity="1" transform="translate(0,465.5)"><line stroke="currentColor" x2="-6"></line><text fill="currentColor" x="-9" dy="0.32em">2007</text></g><g class="tick" opacity="1" transform="translate(0,434.09601095033247)"><line stroke="currentColor" x2="-6"></line><text fill="currentColor" x="-9" dy="0.32em">2008</text></g><g class="tick" opacity="1" transform="translate(0,402.60598357450135)"><line stroke="currentColor" x2="-6"></line><text fill="currentColor" x="-9" dy="0.32em">2009</text></g><g class="tick" opacity="1" transform="translate(0,371.2019945248338)"><line stroke="currentColor" x2="-6"></line><text fill="currentColor" x="-9" dy="0.32em">2010</text></g><g class="tick" opacity="1" transform="translate(0,339.7980054751662)"><line stroke="currentColor" x2="-6"></line><text fill="currentColor" x="-9" dy="0.32em">2011</text></g><g class="tick" opacity="1" transform="translate(0,308.39401642549865)"><line stroke="currentColor" x2="-6"></line><text fill="currentColor" x="-9" dy="0.32em">2012</text></g><g class="tick" opacity="1" transform="translate(0,276.90398904966753)"><line stroke="currentColor" x2="-6"></line><text fill="currentColor" x="-9" dy="0.32em">2013</text></g><g class="tick" opacity="1" transform="translate(0,245.5)"><line stroke="currentColor" x2="-6"></line><text fill="currentColor" x="-9" dy="0.32em">2014</text></g><g class="tick" opacity="1" transform="translate(0,214.09601095033244)"><line stroke="currentColor" x2="-6"></line><text fill="currentColor" x="-9" dy="0.32em">2015</text></g><g class="tick" opacity="1" transform="translate(0,182.69202190066486)"><line stroke="currentColor" x2="-6"></line><text fill="currentColor" x="-9" dy="0.32em">2016</text></g><g class="tick" opacity="1" transform="translate(0,151.20199452483376)"><line stroke="currentColor" x2="-6"></line><text fill="currentColor" x="-9" dy="0.32em">2017</text></g><g class="tick" opacity="1" transform="translate(0,119.7980054751662)"><line stroke="currentColor" x2="-6"></line><text fill="currentColor" x="-9" dy="0.32em">2018</text></g><g class="tick" opacity="1" transform="translate(0,88.39401642549865)"><line stroke="currentColor" x2="-6"></line><text fill="currentColor" x="-9" dy="0.32em">2019</text></g><g class="tick" opacity="1" transform="translate(0,56.990027375831026)"><line stroke="currentColor" x2="-6"></line><text fill="currentColor" x="-9" dy="0.32em">2020</text></g><g class="tick" opacity="1" transform="translate(0,25.5)"><line stroke="currentColor" x2="-6"></line><text fill="currentColor" x="-9" dy="0.32em">2021</text></g><text x="-40" y="10" fill="currentColor" text-anchor="start"></text></g><g stroke="currentColor" stroke-opacity="0.1"><g><line x1="40.5" x2="40.5" y1="25" y2="465"></line><line x1="95.5" x2="95.5" y1="25" y2="465"></line><line x1="150.5" x2="150.5" y1="25" y2="465"></line><line x1="205.5" x2="205.5" y1="25" y2="465"></line><line x1="260.5" x2="260.5" y1="25" y2="465"></line><line x1="315.5" x2="315.5" y1="25" y2="465"></line><line x1="370.5" x2="370.5" y1="25" y2="465"></line><line x1="425.5" x2="425.5" y1="25" y2="465"></line><line x1="480.5" x2="480.5" y1="25" y2="465"></line></g><g><line y1="465.5" y2="465.5" x1="40" x2="480"></line><line y1="434.09601095033247" y2="434.09601095033247" x1="40" x2="480"></line><line y1="402.60598357450135" y2="402.60598357450135" x1="40" x2="480"></line><line y1="371.2019945248338" y2="371.2019945248338" x1="40" x2="480"></line><line y1="339.7980054751662" y2="339.7980054751662" x1="40" x2="480"></line><line y1="308.39401642549865" y2="308.39401642549865" x1="40" x2="480"></line><line y1="276.90398904966753" y2="276.90398904966753" x1="40" x2="480"></line><line y1="245.5" y2="245.5" x1="40" x2="480"></line><line y1="214.09601095033244" y2="214.09601095033244" x1="40" x2="480"></line><line y1="182.69202190066486" y2="182.69202190066486" x1="40" x2="480"></line><line y1="151.20199452483376" y2="151.20199452483376" x1="40" x2="480"></line><line y1="119.7980054751662" y2="119.7980054751662" x1="40" x2="480"></line><line y1="88.39401642549865" y2="88.39401642549865" x1="40" x2="480"></line><line y1="56.990027375831026" y2="56.990027375831026" x1="40" x2="480"></line><line y1="25.5" y2="25.5" x1="40" x2="480"></line></g></g><g stroke="steelblue" stroke-width="1" fill="black"><circle cx="40" cy="136.35145696635234" r="1"></circle><circle cx="42.75" cy="224.29424446689555" r="1"></circle><circle cx="45.5" cy="130.97625635510366" r="1"></circle><circle cx="48.25" cy="36.40202104969653" r="1"></circle><circle cx="51" cy="239.44327146612784" r="1"></circle><circle cx="53.75" cy="150.22833860209445" r="1"></circle><circle cx="56.5" cy="94.48217121844174" r="1"></circle><circle cx="59.25" cy="131.89254959153521" r="1"></circle><circle cx="62" cy="258.12161749156274" r="1"></circle><circle cx="64.75" cy="238.99887454916788" r="1"></circle><circle cx="67.5" cy="224.83074122959488" r="1"></circle><circle cx="70.25" cy="306.26482395819755" r="1"></circle><circle cx="73" cy="132.21126980764495" r="1"></circle><circle cx="75.75" cy="142.55787444415472" r="1"></circle><circle cx="78.5" cy="95.82120540564027" r="1"></circle><circle cx="81.25" cy="103.75949173655472" r="1"></circle><circle cx="84" cy="34.93715381885602" r="1"></circle><circle cx="86.75" cy="112.03975751024784" r="1"></circle><circle cx="89.5" cy="292.0261850186127" r="1"></circle><circle cx="92.25" cy="138.85437859398314" r="1"></circle><circle cx="95" cy="79.43093812917338" r="1"></circle><circle cx="97.75" cy="190.48596816654356" r="1"></circle><circle cx="100.5" cy="296.6678730500152" r="1"></circle><circle cx="103.25" cy="190.64144460015356" r="1"></circle><circle cx="106" cy="52.06563491287534" r="1"></circle><circle cx="108.75" cy="319.9563816284998" r="1"></circle><circle cx="111.5" cy="68.91227277336" r="1"></circle><circle cx="114.25" cy="233.93556187444776" r="1"></circle><circle cx="117" cy="36.92062403134462" r="1"></circle><circle cx="119.75" cy="137.47473013441675" r="1"></circle><circle cx="122.5" cy="71.34156391677166" r="1"></circle><circle cx="125.25" cy="397.0653147134228" r="1"></circle><circle cx="128" cy="379.14388887078314" r="1"></circle><circle cx="130.75" cy="340.524996650444" r="1"></circle><circle cx="133.5" cy="78.05524205521516" r="1"></circle><circle cx="136.25" cy="54.328091368646696" r="1"></circle><circle cx="139" cy="43.692494550181806" r="1"></circle><circle cx="141.75" cy="297.22273560958297" r="1"></circle><circle cx="144.5" cy="109.5442407552253" r="1"></circle><circle cx="147.25" cy="267.37079730297364" r="1"></circle><circle cx="150" cy="41.96357828546185" r="1"></circle><circle cx="152.75" cy="105.89916333521631" r="1"></circle><circle cx="155.5" cy="240.1231136567737" r="1"></circle><circle cx="158.25" cy="43.159381563319265" r="1"></circle><circle cx="161" cy="193.8482642962673" r="1"></circle><circle cx="163.75" cy="43.78894610292733" r="1"></circle><circle cx="166.5" cy="80.01018916844103" r="1"></circle><circle cx="169.25" cy="110.29827407334987" r="1"></circle><circle cx="172" cy="326.39975702139367" r="1"></circle><circle cx="174.75" cy="46.629559198424076" r="1"></circle><circle cx="177.5" cy="278.40652013716885" r="1"></circle><circle cx="180.25" cy="235.9347071944843" r="1"></circle><circle cx="183" cy="60.54288165022669" r="1"></circle><circle cx="185.75" cy="70.56059283520906" r="1"></circle><circle cx="188.5" cy="67.0154582916902" r="1"></circle><circle cx="191.25" cy="129.11704181694407" r="1"></circle><circle cx="194" cy="256.3853053165602" r="1"></circle><circle cx="196.75" cy="304.92414866959257" r="1"></circle><circle cx="199.5" cy="173.55948295528617" r="1"></circle><circle cx="202.25" cy="177.81833927200566" r="1"></circle><circle cx="205" cy="57.54759873042776" r="1"></circle><circle cx="207.75" cy="223.7861383602022" r="1"></circle><circle cx="210.5" cy="68.1525692905459" r="1"></circle><circle cx="213.25" cy="328.4517272845783" r="1"></circle><circle cx="216" cy="143.14353055881458" r="1"></circle><circle cx="218.75" cy="76.92058175451557" r="1"></circle><circle cx="221.5" cy="59.17489915120438" r="1"></circle><circle cx="224.25" cy="63.080859912513205" r="1"></circle><circle cx="227" cy="277.3463138588334" r="1"></circle><circle cx="229.75" cy="60.496202870841145" r="1"></circle><circle cx="232.5" cy="63.14923548646415" r="1"></circle><circle cx="235.25" cy="291.0744079433364" r="1"></circle><circle cx="238" cy="84.39516631903705" r="1"></circle><circle cx="240.75" cy="73.57537877141903" r="1"></circle><circle cx="243.5" cy="116.05558244253245" r="1"></circle><circle cx="246.25" cy="227.10385787381045" r="1"></circle><circle cx="249" cy="89.80121525514565" r="1"></circle><circle cx="251.75" cy="167.40238515549183" r="1"></circle><circle cx="254.5" cy="70.89033770767249" r="1"></circle><circle cx="257.25" cy="172.21001662104027" r="1"></circle><circle cx="260" cy="290.0444664428801" r="1"></circle><circle cx="262.75" cy="98.63382915815697" r="1"></circle><circle cx="265.5" cy="115.1073335361173" r="1"></circle><circle cx="268.25" cy="122.65513930532018" r="1"></circle><circle cx="271" cy="76.2344579694086" r="1"></circle><circle cx="273.75" cy="323.5026085799331" r="1"></circle><circle cx="276.5" cy="79.92978416185055" r="1"></circle><circle cx="279.25" cy="85.26637607004734" r="1"></circle><circle cx="282" cy="266.7733656882342" r="1"></circle><circle cx="284.75" cy="297.747673959646" r="1"></circle><circle cx="287.5" cy="84.20819129405119" r="1"></circle><circle cx="290.25" cy="441.3472415953302" r="1"></circle><circle cx="293" cy="326.1338617484321" r="1"></circle><circle cx="295.75" cy="227.59280053665321" r="1"></circle><circle cx="298.5" cy="176.95216037312244" r="1"></circle><circle cx="301.25" cy="92.88660938020537" r="1"></circle><circle cx="304" cy="161.6881865684613" r="1"></circle><circle cx="306.75" cy="192.39574715016153" r="1"></circle><circle cx="309.5" cy="94.11807773504829" r="1"></circle><circle cx="312.25" cy="141.7961653920248" r="1"></circle><circle cx="315" cy="140.42108174365217" r="1"></circle><circle cx="317.75" cy="95.77541987137704" r="1"></circle><circle cx="320.5" cy="284.8049245716189" r="1"></circle><circle cx="323.25" cy="187.72021438969279" r="1"></circle><circle cx="326" cy="314.4933870710758" r="1"></circle><circle cx="328.75" cy="99.18768992888079" r="1"></circle><circle cx="331.5" cy="139.99555450542448" r="1"></circle><circle cx="334.25" cy="116.98818412419067" r="1"></circle><circle cx="337" cy="175.24296122481496" r="1"></circle><circle cx="339.75" cy="191.93323637726502" r="1"></circle><circle cx="342.5" cy="194.39543518880635" r="1"></circle><circle cx="345.25" cy="223.60965025203146" r="1"></circle><circle cx="348" cy="117.5838501607787" r="1"></circle><circle cx="350.75" cy="266.71711215762105" r="1"></circle><circle cx="353.5" cy="167.02469283665755" r="1"></circle><circle cx="356.25" cy="110.44305646084096" r="1"></circle><circle cx="359" cy="111.43659299453932" r="1"></circle><circle cx="361.75" cy="120.75702130317644" r="1"></circle><circle cx="364.5" cy="319.17560572647346" r="1"></circle><circle cx="367.25" cy="112.92859615579603" r="1"></circle><circle cx="370" cy="120.07886900882113" r="1"></circle><circle cx="372.75" cy="234.0017645823375" r="1"></circle><circle cx="375.5" cy="358.6198833268153" r="1"></circle><circle cx="378.25" cy="131.0124770962789" r="1"></circle><circle cx="381" cy="118.35891009067339" r="1"></circle><circle cx="383.75" cy="222.9089348049653" r="1"></circle><circle cx="386.5" cy="271.95927501122554" r="1"></circle><circle cx="389.25" cy="219.49684897304425" r="1"></circle><circle cx="392" cy="129.3338872774808" r="1"></circle><circle cx="394.75" cy="116.70383741435998" r="1"></circle><circle cx="397.5" cy="116.7559403923869" r="1"></circle><circle cx="400.25" cy="189.55889026492275" r="1"></circle><circle cx="403" cy="259.72455134054667" r="1"></circle><circle cx="405.75" cy="338.13285932588826" r="1"></circle><circle cx="408.5" cy="126.18370350454089" r="1"></circle><circle cx="411.25" cy="124.6449030620374" r="1"></circle><circle cx="414" cy="229.18922574559306" r="1"></circle><circle cx="416.75" cy="230.0740044576254" r="1"></circle><circle cx="419.5" cy="417.1785380364721" r="1"></circle><circle cx="422.25" cy="283.19451813467754" r="1"></circle><circle cx="425" cy="257.3520813417054" r="1"></circle><circle cx="427.75" cy="127.59785193875922" r="1"></circle><circle cx="430.5" cy="177.74081714683" r="1"></circle><circle cx="433.25" cy="159.1870713473544" r="1"></circle><circle cx="436" cy="137.7263484226307" r="1"></circle><circle cx="438.75" cy="282.0170746788047" r="1"></circle><circle cx="441.5" cy="128.90941659786495" r="1"></circle><circle cx="444.25" cy="224.38798840148323" r="1"></circle><circle cx="447" cy="308.6017194991237" r="1"></circle><circle cx="449.75" cy="151.65932625038022" r="1"></circle><circle cx="452.5" cy="209.75054887454917" r="1"></circle><circle cx="455.25" cy="301.0035056272542" r="1"></circle><circle cx="458" cy="138.59514631222933" r="1"></circle><circle cx="460.75" cy="324.88143350135425" r="1"></circle><circle cx="463.5" r="1"></circle></g><g font-family="sans-serif" font-size="10"><text dy="0.35em" x="47" y="136.35145696635234"></text><text dy="0.35em" x="49.75" y="224.29424446689555"></text><text dy="0.35em" x="52.5" y="130.97625635510366"></text><text dy="0.35em" x="55.25" y="36.40202104969653"></text><text dy="0.35em" x="58" y="239.44327146612784"></text><text dy="0.35em" x="60.75" y="150.22833860209445"></text><text dy="0.35em" x="63.5" y="94.48217121844174"></text><text dy="0.35em" x="66.25" y="131.89254959153521"></text><text dy="0.35em" x="69" y="258.12161749156274"></text><text dy="0.35em" x="71.75" y="238.99887454916788"></text><text dy="0.35em" x="74.5" y="224.83074122959488"></text><text dy="0.35em" x="77.25" y="306.26482395819755"></text><text dy="0.35em" x="80" y="132.21126980764495"></text><text dy="0.35em" x="82.75" y="142.55787444415472"></text><text dy="0.35em" x="85.5" y="95.82120540564027"></text><text dy="0.35em" x="88.25" y="103.75949173655472"></text><text dy="0.35em" x="91" y="34.93715381885602"></text><text dy="0.35em" x="93.75" y="112.03975751024784"></text><text dy="0.35em" x="96.5" y="292.0261850186127"></text><text dy="0.35em" x="99.25" y="138.85437859398314"></text><text dy="0.35em" x="102" y="79.43093812917338"></text><text dy="0.35em" x="104.75" y="190.48596816654356"></text><text dy="0.35em" x="107.5" y="296.6678730500152"></text><text dy="0.35em" x="110.25" y="190.64144460015356"></text><text dy="0.35em" x="113" y="52.06563491287534"></text><text dy="0.35em" x="115.75" y="319.9563816284998"></text><text dy="0.35em" x="118.5" y="68.91227277336"></text><text dy="0.35em" x="121.25" y="233.93556187444776"></text><text dy="0.35em" x="124" y="36.92062403134462"></text><text dy="0.35em" x="126.75" y="137.47473013441675"></text><text dy="0.35em" x="129.5" y="71.34156391677166"></text><text dy="0.35em" x="132.25" y="397.0653147134228"></text><text dy="0.35em" x="135" y="379.14388887078314"></text><text dy="0.35em" x="137.75" y="340.524996650444"></text><text dy="0.35em" x="140.5" y="78.05524205521516"></text><text dy="0.35em" x="143.25" y="54.328091368646696"></text><text dy="0.35em" x="146" y="43.692494550181806"></text><text dy="0.35em" x="148.75" y="297.22273560958297"></text><text dy="0.35em" x="151.5" y="109.5442407552253"></text><text dy="0.35em" x="154.25" y="267.37079730297364"></text><text dy="0.35em" x="157" y="41.96357828546185"></text><text dy="0.35em" x="159.75" y="105.89916333521631"></text><text dy="0.35em" x="162.5" y="240.1231136567737"></text><text dy="0.35em" x="165.25" y="43.159381563319265"></text><text dy="0.35em" x="168" y="193.8482642962673"></text><text dy="0.35em" x="170.75" y="43.78894610292733"></text><text dy="0.35em" x="173.5" y="80.01018916844103"></text><text dy="0.35em" x="176.25" y="110.29827407334987"></text><text dy="0.35em" x="179" y="326.39975702139367"></text><text dy="0.35em" x="181.75" y="46.629559198424076"></text><text dy="0.35em" x="184.5" y="278.40652013716885"></text><text dy="0.35em" x="187.25" y="235.9347071944843"></text><text dy="0.35em" x="190" y="60.54288165022669"></text><text dy="0.35em" x="192.75" y="70.56059283520906"></text><text dy="0.35em" x="195.5" y="67.0154582916902"></text><text dy="0.35em" x="198.25" y="129.11704181694407"></text><text dy="0.35em" x="201" y="256.3853053165602"></text><text dy="0.35em" x="203.75" y="304.92414866959257"></text><text dy="0.35em" x="206.5" y="173.55948295528617"></text><text dy="0.35em" x="209.25" y="177.81833927200566"></text><text dy="0.35em" x="212" y="57.54759873042776"></text><text dy="0.35em" x="214.75" y="223.7861383602022"></text><text dy="0.35em" x="217.5" y="68.1525692905459"></text><text dy="0.35em" x="220.25" y="328.4517272845783"></text><text dy="0.35em" x="223" y="143.14353055881458"></text><text dy="0.35em" x="225.75" y="76.92058175451557"></text><text dy="0.35em" x="228.5" y="59.17489915120438"></text><text dy="0.35em" x="231.25" y="63.080859912513205"></text><text dy="0.35em" x="234" y="277.3463138588334"></text><text dy="0.35em" x="236.75" y="60.496202870841145"></text><text dy="0.35em" x="239.5" y="63.14923548646415"></text><text dy="0.35em" x="242.25" y="291.0744079433364"></text><text dy="0.35em" x="245" y="84.39516631903705"></text><text dy="0.35em" x="247.75" y="73.57537877141903"></text><text dy="0.35em" x="250.5" y="116.05558244253245"></text><text dy="0.35em" x="253.25" y="227.10385787381045"></text><text dy="0.35em" x="256" y="89.80121525514565"></text><text dy="0.35em" x="258.75" y="167.40238515549183"></text><text dy="0.35em" x="261.5" y="70.89033770767249"></text><text dy="0.35em" x="264.25" y="172.21001662104027"></text><text dy="0.35em" x="267" y="290.0444664428801"></text><text dy="0.35em" x="269.75" y="98.63382915815697"></text><text dy="0.35em" x="272.5" y="115.1073335361173"></text><text dy="0.35em" x="275.25" y="122.65513930532018"></text><text dy="0.35em" x="278" y="76.2344579694086"></text><text dy="0.35em" x="280.75" y="323.5026085799331"></text><text dy="0.35em" x="283.5" y="79.92978416185055"></text><text dy="0.35em" x="286.25" y="85.26637607004734"></text><text dy="0.35em" x="289" y="266.7733656882342"></text><text dy="0.35em" x="291.75" y="297.747673959646"></text><text dy="0.35em" x="294.5" y="84.20819129405119"></text><text dy="0.35em" x="297.25" y="441.3472415953302"></text><text dy="0.35em" x="300" y="326.1338617484321"></text><text dy="0.35em" x="302.75" y="227.59280053665321"></text><text dy="0.35em" x="305.5" y="176.95216037312244"></text><text dy="0.35em" x="308.25" y="92.88660938020537"></text><text dy="0.35em" x="311" y="161.6881865684613"></text><text dy="0.35em" x="313.75" y="192.39574715016153"></text><text dy="0.35em" x="316.5" y="94.11807773504829"></text><text dy="0.35em" x="319.25" y="141.7961653920248"></text><text dy="0.35em" x="322" y="140.42108174365217"></text><text dy="0.35em" x="324.75" y="95.77541987137704"></text><text dy="0.35em" x="327.5" y="284.8049245716189"></text><text dy="0.35em" x="330.25" y="187.72021438969279"></text><text dy="0.35em" x="333" y="314.4933870710758"></text><text dy="0.35em" x="335.75" y="99.18768992888079"></text><text dy="0.35em" x="338.5" y="139.99555450542448"></text><text dy="0.35em" x="341.25" y="116.98818412419067"></text><text dy="0.35em" x="344" y="175.24296122481496"></text><text dy="0.35em" x="346.75" y="191.93323637726502"></text><text dy="0.35em" x="349.5" y="194.39543518880635"></text><text dy="0.35em" x="352.25" y="223.60965025203146"></text><text dy="0.35em" x="355" y="117.5838501607787"></text><text dy="0.35em" x="357.75" y="266.71711215762105"></text><text dy="0.35em" x="360.5" y="167.02469283665755"></text><text dy="0.35em" x="363.25" y="110.44305646084096"></text><text dy="0.35em" x="366" y="111.43659299453932"></text><text dy="0.35em" x="368.75" y="120.75702130317644"></text><text dy="0.35em" x="371.5" y="319.17560572647346"></text><text dy="0.35em" x="374.25" y="112.92859615579603"></text><text dy="0.35em" x="377" y="120.07886900882113"></text><text dy="0.35em" x="379.75" y="234.0017645823375"></text><text dy="0.35em" x="382.5" y="358.6198833268153"></text><text dy="0.35em" x="385.25" y="131.0124770962789"></text><text dy="0.35em" x="388" y="118.35891009067339"></text><text dy="0.35em" x="390.75" y="222.9089348049653"></text><text dy="0.35em" x="393.5" y="271.95927501122554"></text><text dy="0.35em" x="396.25" y="219.49684897304425"></text><text dy="0.35em" x="399" y="129.3338872774808"></text><text dy="0.35em" x="401.75" y="116.70383741435998"></text><text dy="0.35em" x="404.5" y="116.7559403923869"></text><text dy="0.35em" x="407.25" y="189.55889026492275"></text><text dy="0.35em" x="410" y="259.72455134054667"></text><text dy="0.35em" x="412.75" y="338.13285932588826"></text><text dy="0.35em" x="415.5" y="126.18370350454089"></text><text dy="0.35em" x="418.25" y="124.6449030620374"></text><text dy="0.35em" x="421" y="229.18922574559306"></text><text dy="0.35em" x="423.75" y="230.0740044576254"></text><text dy="0.35em" x="426.5" y="417.1785380364721"></text><text dy="0.35em" x="429.25" y="283.19451813467754"></text><text dy="0.35em" x="432" y="257.3520813417054"></text><text dy="0.35em" x="434.75" y="127.59785193875922"></text><text dy="0.35em" x="437.5" y="177.74081714683"></text><text dy="0.35em" x="440.25" y="159.1870713473544"></text><text dy="0.35em" x="443" y="137.7263484226307"></text><text dy="0.35em" x="445.75" y="282.0170746788047"></text><text dy="0.35em" x="448.5" y="128.90941659786495"></text><text dy="0.35em" x="451.25" y="224.38798840148323"></text><text dy="0.35em" x="454" y="308.6017194991237"></text><text dy="0.35em" x="456.75" y="151.65932625038022"></text><text dy="0.35em" x="459.5" y="209.75054887454917"></text><text dy="0.35em" x="462.25" y="301.0035056272542"></text><text dy="0.35em" x="465" y="138.59514631222933"></text><text dy="0.35em" x="467.75" y="324.88143350135425"></text><text dy="0.35em" x="470.5"></text></g></svg>