<svg xmlns="http://www.w3.org/2000/svg" width="1000" height="1000"><g fill="none" font-family="sans-serif" font-size="10" text-anchor="middle"><g class="tick" opacity="1" transform="translate(0,465) translate(40.5,0)"><line y2="6" stroke="currentColor"/><text y="9" fill="currentColor" dy=".71em">0</text></g><g class="tick" opacity="1" transform="translate(0,465) translate(95.5,0)"><line y2="6" stroke="currentColor"/><text y="9" fill="currentColor" dy=".71em">20</text></g><g class="tick" opacity="1" transform="translate(0,465) translate(150.5,0)"><line y2="6" stroke="currentColor"/><text y="9" fill="currentColor" dy=".71em">40</text></g><g class="tick" opacity="1" transform="translate(0,465) translate(205.5,0)"><line y2="6" stroke="currentColor"/><text y="9" fill="currentColor" dy=".71em">60</text></g><g class="tick" opacity="1" transform="translate(0,465) translate(260.5,0)"><line y2="6" stroke="currentColor"/><text y="9" fill="currentColor" dy=".71em">80</text></g><g class="tick" opacity="1" transform="translate(0,465) translate(315.5,0)"><line y2="6" stroke="currentColor"/><text y="9" fill="currentColor" dy=".71em">100</text></g><g class="tick" opacity="1" transform="translate(0,465) translate(370.5,0)"><line y2="6" stroke="currentColor"/><text y="9" fill="currentColor" dy=".71em">120</text></g><g class="tick" opacity="1" transform="translate(0,465) translate(425.5,0)"><line y2="6" stroke="currentColor"/><text y="9" fill="currentColor" dy=".71em">140</text></g><g class="tick" opacity="1" transform="translate(0,465) translate(480.5,0)"><line y2="6" stroke="currentColor"/><text y="9" fill="currentColor" dy=".71em">160</text></g></g><g fill="none" font-family="sans-serif" font-size="10" text-anchor="end"><g class="tick" opacity="1" transform="translate(40,0) translate(0,465.5)"><line x2="-6" stroke="currentColor"/><text x="-9" fill="currentColor" dy=".32em">2007</text></g><g class="tick" opacity="1" transform="translate(40,0) translate(0,434.09601095033247)"><line x2="-6" stroke="currentColor"/><text x="-9" fill="currentColor" dy=".32em">2008</text></g><g class="tick" opacity="1" transform="translate(40,0) translate(0,402.60598357450135)"><line x2="-6" stroke="currentColor"/><text x="-9" fill="currentColor" dy=".32em">2009</text></g><g class="tick" opacity="1" transform="translate(40,0) translate(0,371.2019945248338)"><line x2="-6" stroke="currentColor"/><text x="-9" fill="currentColor" dy=".32em">2010</text></g><g class="tick" opacity="1" transform="translate(40,0) translate(0,339.7980054751662)"><line x2="-6" stroke="currentColor"/><text x="-9" fill="currentColor" dy=".32em">2011</text></g><g class="tick" opacity="1" transform="translate(40,0) translate(0,308.39401642549865)"><line x2="-6" stroke="currentColor"/><text x="-9" fill="currentColor" dy=".32em">2012</text></g><g class="tick" opacity="1" transform="translate(40,0) translate(0,276.90398904966753)"><line x2="-6" stroke="currentColor"/><text x="-9" fill="currentColor" dy=".32em">2013</text></g><g class="tick" opacity="1" transform="translate(40,0) translate(0,245.5)"><line x2="-6" stroke="currentColor"/><text x="-9" fill="currentColor" dy=".32em">2014</text></g><g class="tick" opacity="1" transform="translate(40,0) translate(0,214.09601095033244)"><line x2="-6" stroke="currentColor"/><text x="-9" fill="currentColor" dy=".32em">2015</text></g><g class="tick" opacity="1" transform="translate(40,0) translate(0,182.69202190066486)"><line x2="-6" stroke="currentColor"/><text x="-9" fill="currentColor" dy=".32em">2016</text></g><g class="tick" opacity="1" transform="translate(40,0) translate(0,151.20199452483376)"><line x2="-6" stroke="currentColor"/><text x="-9" fill="currentColor" dy=".32em">2017</text></g><g class="tick" opacity="1" transform="translate(40,0) translate(0,119.7980054751662)"><line x2="-6" stroke="currentColor"/><text x="-9" fill="currentColor" dy=".32em">2018</text></g><g class="tick" opacity="1" transform="translate(40,0) translate(0,88.39401642549865)"><line x2="-6" stroke="currentColor"/><text x="-9" fill="currentColor" dy=".32em">2019</text></g><g class="tick" opacity="1" transform="translate(40,0) translate(0,56.990027375831026)"><line x2="-6" stroke="currentColor"/><text x="-9" fill="currentColor" dy=".32em">2020</text></g><g class="tick" opacity="1" transform="translate(40,0) translate(0,25.5)"><line x2="-6" stroke="currentColor"/><text x="-9" fill="currentColor" dy=".32em">2021</text></g></g><g stroke="currentColor" stroke-opacity=".1"><g><line x1="40.5" x2="40.5" y1="25" y2="465"/><line x1="95.5" x2="95.5" y1="25" y2="465"/><line x1="150.5" x2="150.5" y1="25" y2="465"/><line x1="205.5" x2="205.5" y1="25" y2="465"/><line x1="260.5" x2="260.5" y1="25" y2="465"/><line x1="315.5" x2="315.5" y1="25" y2="465"/><line x1="370.5" x2="370.5" y1="25" y2="465"/><line x1="425.5" x2="425.5" y1="25" y2="465"/><line x1="480.5" x2="480.5" y1="25" y2="465"/></g><g><line x1="40" x2="480" y1="465.5" y2="465.5"/><line x1="40" x2="480" y1="434.096" y2="434.096"/><line x1="40" x2="480" y1="402.606" y2="402.606"/><line x1="40" x2="480" y1="371.202" y2="371.202"/><line x1="40" x2="480" y1="339.798" y2="339.798"/><line x1="40" x2="480" y1="308.394" y2="308.394"/><line x1="40" x2="480" y1="276.904" y2="276.904"/><line x1="40" x2="480" y1="245.5" y2="245.5"/><line x1="40" x2="480" y1="214.096" y2="214.096"/><line x1="40" x2="480" y1="182.692" y2="182.692"/><line x1="40" x2="480" y1="151.202" y2="151.202"/><line x1="40" x2="480" y1="119.798" y2="119.798"/><line x1="40" x2="480" y1="88.394" y2="88.394"/><line x1="40" x2="480" y1="56.99" y2="56.99"/><line x1="40" x2="480" y1="25.5" y2="25.5"/></g></g><g fill="#000" stroke="#4682b4" stroke-width="1"><circle cx="40" cy="136.351" r="1"/><circle cx="42.75" cy="224.294" r="1"/><circle cx="45.5" cy="130.976" r="1"/><circle cx="48.25" cy="36.402" r="1"/><circle cx="51" cy="239.443" r="1"/><circle cx="53.75" cy="150.228" r="1"/><circle cx="56.5" cy="94.482" r="1"/><circle cx="59.25" cy="131.893" r="1"/><circle cx="62" cy="258.122" r="1"/><circle cx="64.75" cy="238.999" r="1"/><circle cx="67.5" cy="224.831" r="1"/><circle cx="70.25" cy="306.265" r="1"/><circle cx="73" cy="132.211" r="1"/><circle cx="75.75" cy="142.558" r="1"/><circle cx="78.5" cy="95.821" r="1"/><circle cx="81.25" cy="103.759" r="1"/><circle cx="84" cy="34.937" r="1"/><circle cx="86.75" cy="112.04" r="1"/><circle cx="89.5" cy="292.026" r="1"/><circle cx="92.25" cy="138.854" r="1"/><circle cx="95" cy="79.431" r="1"/><circle cx="97.75" cy="190.486" r="1"/><circle cx="100.5" cy="296.668" r="1"/><circle cx="103.25" cy="190.641" r="1"/><circle cx="106" cy="52.066" r="1"/><circle cx="108.75" cy="319.956" r="1"/><circle cx="111.5" cy="68.912" r="1"/><circle cx="114.25" cy="233.936" r="1"/><circle cx="117" cy="36.921" r="1"/><circle cx="119.75" cy="137.475" r="1"/><circle cx="122.5" cy="71.342" r="1"/><circle cx="125.25" cy="397.065" r="1"/><circle cx="128" cy="379.144" r="1"/><circle cx="130.75" cy="340.525" r="1"/><circle cx="133.5" cy="78.055" r="1"/><circle cx="136.25" cy="54.328" r="1"/><circle cx="139" cy="43.692" r="1"/><circle cx="141.75" cy="297.223" r="1"/><circle cx="144.5" cy="109.544" r="1"/><circle cx="147.25" cy="267.371" r="1"/><circle cx="150" cy="41.964" r="1"/><circle cx="152.75" cy="105.899" r="1"/><circle cx="155.5" cy="240.123" r="1"/><circle cx="158.25" cy="43.159" r="1"/><circle cx="161" cy="193.848" r="1"/><circle cx="163.75" cy="43.789" r="1"/><circle cx="166.5" cy="80.01" r="1"/><circle cx="169.25" cy="110.298" r="1"/><circle cx="172" cy="326.4" r="1"/><circle cx="174.75" cy="46.63" r="1"/><circle cx="177.5" cy="278.407" r="1"/><circle cx="180.25" cy="235.935" r="1"/><circle cx="183" cy="60.543" r="1"/><circle cx="185.75" cy="70.561" r="1"/><circle cx="188.5" cy="67.015" r="1"/><circle cx="191.25" cy="129.117" r="1"/><circle cx="194" cy="256.385" r="1"/><circle cx="196.75" cy="304.924" r="1"/><circle cx="199.5" cy="173.559" r="1"/><circle cx="202.25" cy="177.818" r="1"/><circle cx="205" cy="57.548" r="1"/><circle cx="207.75" cy="223.786" r="1"/><circle cx="210.5" cy="68.153" r="1"/><circle cx="213.25" cy="328.452" r="1"/><circle cx="216" cy="143.144" r="1"/><circle cx="218.75" cy="76.921" r="1"/><circle cx="221.5" cy="59.175" r="1"/><circle cx="224.25" cy="63.081" r="1"/><circle cx="227" cy="277.346" r="1"/><circle cx="229.75" cy="60.496" r="1"/><circle cx="232.5" cy="63.149" r="1"/><circle cx="235.25" cy="291.074" r="1"/><circle cx="238" cy="84.395" r="1"/><circle cx="240.75" cy="73.575" r="1"/><circle cx="243.5" cy="116.056" r="1"/><circle cx="246.25" cy="227.104" r="1"/><circle cx="249" cy="89.801" r="1"/><circle cx="251.75" cy="167.402" r="1"/><circle cx="254.5" cy="70.89" r="1"/><circle cx="257.25" cy="172.21" r="1"/><circle cx="260" cy="290.044" r="1"/><circle cx="262.75" cy="98.634" r="1"/><circle cx="265.5" cy="115.107" r="1"/><circle cx="268.25" cy="122.655" r="1"/><circle cx="271" cy="76.234" r="1"/><circle cx="273.75" cy="323.503" r="1"/><circle cx="276.5" cy="79.93" r="1"/><circle cx="279.25" cy="85.266" r="1"/><circle cx="282" cy="266.773" r="1"/><circle cx="284.75" cy="297.748" r="1"/><circle cx="287.5" cy="84.208" r="1"/><circle cx="290.25" cy="441.347" r="1"/><circle cx="293" cy="326.134" r="1"/><circle cx="295.75" cy="227.593" r="1"/><circle cx="298.5" cy="176.952" r="1"/><circle cx="301.25" cy="92.887" r="1"/><circle cx="304" cy="161.688" r="1"/><circle cx="306.75" cy="192.396" r="1"/><circle cx="309.5" cy="94.118" r="1"/><circle cx="312.25" cy="141.796" r="1"/><circle cx="315" cy="140.421" r="1"/><circle cx="317.75" cy="95.775" r="1"/><circle cx="320.5" cy="284.805" r="1"/><circle cx="323.25" cy="187.72" r="1"/><circle cx="326" cy="314.493" r="1"/><circle cx="328.75" cy="99.188" r="1"/><circle cx="331.5" cy="139.996" r="1"/><circle cx="334.25" cy="116.988" r="1"/><circle cx="337" cy="175.243" r="1"/><circle cx="339.75" cy="191.933" r="1"/><circle cx="342.5" cy="194.395" r="1"/><circle cx="345.25" cy="223.61" r="1"/><circle cx="348" cy="117.584" r="1"/><circle cx="350.75" cy="266.717" r="1"/><circle cx="353.5" cy="167.025" r="1"/><circle cx="356.25" cy="110.443" r="1"/><circle cx="359" cy="111.437" r="1"/><circle cx="361.75" cy="120.757" r="1"/><circle cx="364.5" cy="319.176" r="1"/><circle cx="367.25" cy="112.929" r="1"/><circle cx="370" cy="120.079" r="1"/><circle cx="372.75" cy="234.002" r="1"/><circle cx="375.5" cy="358.62" r="1"/><circle cx="378.25" cy="131.012" r="1"/><circle cx="381" cy="118.359" r="1"/><circle cx="383.75" cy="222.909" r="1"/><circle cx="386.5" cy="271.959" r="1"/><circle cx="389.25" cy="219.497" r="1"/><circle cx="392" cy="129.334" r="1"/><circle cx="394.75" cy="116.704" r="1"/><circle cx="397.5" cy="116.756" r="1"/><circle cx="400.25" cy="189.559" r="1"/><circle cx="403" cy="259.725" r="1"/><circle cx="405.75" cy="338.133" r="1"/><circle cx="408.5" cy="126.184" r="1"/><circle cx="411.25" cy="124.645" r="1"/><circle cx="414" cy="229.189" r="1"/><circle cx="416.75" cy="230.074" r="1"/><circle cx="419.5" cy="417.179" r="1"/><circle cx="422.25" cy="283.195" r="1"/><circle cx="425" cy="257.352" r="1"/><circle cx="427.75" cy="127.598" r="1"/><circle cx="430.5" cy="177.741" r="1"/><circle cx="433.25" cy="159.187" r="1"/><circle cx="436" cy="137.726" r="1"/><circle cx="438.75" cy="282.017" r="1"/><circle cx="441.5" cy="128.909" r="1"/><circle cx="444.25" cy="224.388" r="1"/><circle cx="447" cy="308.602" r="1"/><circle cx="449.75" cy="151.659" r="1"/><circle cx="452.5" cy="209.751" r="1"/><circle cx="455.25" cy="301.004" r="1"/><circle cx="458" cy="138.595" r="1"/><circle cx="460.75" cy="324.881" r="1"/><circle cx="463.5" r="1"/></g></svg>